<svg width="75" height="73" viewBox="0 0 75 73" fill="none" xmlns="http://www.w3.org/2000/svg">
<g filter="url(#filter0_d_3_41)">
<path d="M69.9531 9.70312H5.04688V54.9844H69.9531V9.70312Z" fill="#3D3935"/>
<path d="M5.04688 9.70312V54.9844H32.2656V63.6094H44.8281V54.9844H69.9531V9.70312H5.04688ZM66.8125 51.75H8.1875V12.9375H66.8125V51.75Z" fill="#A3AEB5"/>
<path d="M44.8281 54.9844H32.2656V58.2188H44.8281V54.9844Z" fill="#788287"/>
<path d="M71 56.0625V8.625H4V56.0625H31.2188V62.5312H29.125V64.6875H47.9688V62.5312H45.875V56.0625H71ZM6.09375 53.9062V10.7812H68.9062V53.9062H6.09375ZM43.7812 62.5312H33.3125V56.0625H43.7812V62.5312Z" fill="#231F20"/>
<path d="M22.8438 21.5625H16.5625V19.4062H22.8438V21.5625ZM18.6562 23.7188V25.875H24.9375V23.7188H18.6562ZM18.6562 38.8125H24.9375V36.6562H18.6562V38.8125ZM16.5625 43.125H22.8438V40.9688H16.5625V43.125Z" fill="#C3CC6A"/>
<path d="M50.0625 28.0312V30.1875H20.75V28.0312H50.0625ZM20.75 34.5H50.0625V32.3438H20.75V34.5Z" fill="#E0A838"/>
<path d="M39.5938 25.875H27.0312V23.7188H39.5938V25.875ZM47.9688 19.4062H24.9375V21.5625H47.9688V19.4062Z" fill="#EAD13F"/>
</g>
<defs>
<filter id="filter0_d_3_41" x="0" y="0" width="75" height="77" filterUnits="userSpaceOnUse" color-interpolation-filters="sRGB">
<feFlood flood-opacity="0" result="BackgroundImageFix"/>
<feColorMatrix in="SourceAlpha" type="matrix" values="0 0 0 0 0 0 0 0 0 0 0 0 0 0 0 0 0 0 127 0" result="hardAlpha"/>
<feOffset dy="4"/>
<feGaussianBlur stdDeviation="2"/>
<feComposite in2="hardAlpha" operator="out"/>
<feColorMatrix type="matrix" values="0 0 0 0 0 0 0 0 0 0 0 0 0 0 0 0 0 0 0.25 0"/>
<feBlend mode="normal" in2="BackgroundImageFix" result="effect1_dropShadow_3_41"/>
<feBlend mode="normal" in="SourceGraphic" in2="effect1_dropShadow_3_41" result="shape"/>
</filter>
</defs>
</svg>
